<svg width="171" height="44" viewBox="0 0 171 44" fill="none" xmlns="http://www.w3.org/2000/svg">
<path d="M32.1273 18.2143C35.4001 18.2143 36.1364 19.6097 36.1364 21.3502C36.1364 23.1951 35.2457 24.5169 32.1409 24.5169C29.0559 24.5169 28.1641 23.2719 28.1641 21.3502C28.1641 19.4592 29.1362 18.2143 32.1273 18.2143Z" fill="white"/>
<path d="M66.3297 18.2143C69.6025 18.2143 70.3388 19.6097 70.3388 21.3502C70.3388 23.1951 69.4471 24.5169 66.3433 24.5169C63.2593 24.5169 62.3665 23.2719 62.3665 21.3502C62.3665 19.4592 63.3385 18.2143 66.3297 18.2143Z" fill="white"/>
<path fill-rule="evenodd" clip-rule="evenodd" d="M3.15094 39.4901V3.19293H168.539V39.4901H3.15094ZM81.9747 37.4424H166.453V5.24055H81.9747V37.4424ZM32.143 27.6067C37.9532 27.6067 40.3958 25.1465 40.3958 21.3041C40.3958 17.3993 37.6445 15.0783 32.143 15.0783C26.7259 15.0783 23.8745 17.599 23.8745 21.3041C23.8745 25.4854 26.8657 27.6067 32.143 27.6067ZM11.9422 15.3548V27.4224H23.669V24.2087H16.1849V15.3548H11.9422ZM53.5202 27.4224L53.4107 26.2532C51.9914 27.2475 50.2638 27.7261 48.5245 27.6067C45.9098 27.6067 43.7322 26.8378 42.5109 25.2857C41.7053 24.1526 41.2986 22.7923 41.3522 21.4116C41.3064 20.0599 41.7272 18.7326 42.5463 17.645C43.7822 16.139 46.0225 15.1398 49.3578 15.1398C53.1948 15.1398 55.4497 16.2926 56.4196 18.2296C56.6278 18.6858 56.7501 19.1752 56.7805 19.6742H52.7213C52.619 19.371 52.4287 19.1038 52.1738 18.9053C51.3652 18.3791 50.3996 18.1357 49.4329 18.2143C48.8659 18.1468 48.2906 18.1982 47.7453 18.3652C47.2001 18.5322 46.6971 18.8108 46.2697 19.1828C45.7843 19.835 45.5564 20.6378 45.6282 21.4423C45.5719 22.2099 45.7815 22.9736 46.2227 23.6097C46.654 24.0042 47.1667 24.303 47.7259 24.486C48.2853 24.669 48.878 24.7319 49.4642 24.6704C50.6284 24.7634 51.7843 24.4109 52.69 23.6865C52.8845 23.4478 53.0187 23.167 53.0811 22.8675H48.7133V20.2742H56.8868V27.4224H53.5202ZM66.3453 27.6067C72.1545 27.6067 74.5981 25.1465 74.5981 21.3041C74.5981 17.3993 71.8426 15.0783 66.3453 15.0783C60.9282 15.0783 58.0768 17.599 58.0768 21.3041C58.0768 25.4854 61.068 27.6067 66.3453 27.6067Z" fill="white"/>
<path d="M89.1212 27.3763V15.3087H92.1457V27.3763H89.1212Z" fill="white"/>
<path d="M107.677 22.3341C106.911 23.318 105.591 23.7674 103.732 23.7787C103.34 23.7787 98.1405 23.7633 98.1405 23.7633V27.3763H95.1807V15.3087H103.733C104.418 15.2375 105.112 15.3089 105.767 15.5181C106.423 15.7273 107.025 16.0697 107.537 16.5229C108.213 17.3872 108.542 18.4649 108.462 19.5514C108.53 20.5395 108.254 21.5213 107.677 22.3341ZM105.25 18.3996C104.937 17.9389 104.263 17.6829 103.121 17.6829H98.1249V21.3563H103.088C104.31 21.3563 104.953 21.1106 105.25 20.6335C105.427 20.2974 105.503 19.9189 105.469 19.5422C105.495 19.1492 105.42 18.7562 105.25 18.3996Z" fill="white"/>
<path d="M117.184 27.5606C111.608 27.5606 109.902 25.513 109.902 23.4869H113.065C113.065 24.4861 114.458 25.2396 117.324 25.2396C120.174 25.2396 120.926 24.7472 120.926 23.9476C120.926 23.0558 120.363 22.7794 117.716 22.4876C117.194 22.4416 115.775 22.2726 115.242 22.1958C111.487 21.7802 110.042 20.6888 110.042 18.7364C110.042 16.6765 112.157 15.1244 116.745 15.1244C121.725 15.1244 123.635 17.0461 123.635 19.0446H120.507C120.507 18.03 119.332 17.4454 116.56 17.4454C113.71 17.4454 113.1 17.8293 113.1 18.5828C113.1 19.3671 113.725 19.6128 116.75 19.966C117.439 20.0592 118.973 20.2281 119.396 20.2731C122.591 20.5956 124.032 21.7331 124.032 23.7469C124.026 26.1457 121.834 27.5606 117.184 27.5606Z" fill="white"/>
<path d="M132.938 27.5452C128.852 27.5452 126.19 25.9614 126.19 22.6309V15.3087H129.18V22.6719C129.18 24.1943 130.449 25.2079 133.064 25.2079C135.428 25.2079 136.838 24.2557 136.838 22.6719V15.3087H139.798V22.9043C139.798 25.9317 137.323 27.5452 132.938 27.5452Z" fill="white"/>
<path d="M156.005 27.3763V19.321L152.168 27.3763H149.256L145.529 19.321V27.3763H142.713V15.3087H146.528L150.756 24.5014L155.078 15.3087H158.833V27.3763H156.005Z" fill="white"/>
</svg>
