<svg width="194" height="44" viewBox="0 0 194 44" fill="none" xmlns="http://www.w3.org/2000/svg">
<g clip-path="url(#clip0_139_91)">
<path fill-rule="evenodd" clip-rule="evenodd" d="M61.5764 2.93513C61.5764 1.47797 62.764 0.296692 64.2291 0.296692H68.8502C69.8929 0.296692 70.9035 0.656108 71.7098 1.31376L73.1155 2.46037L73.1507 2.49226C73.1831 2.48138 73.2155 2.47074 73.2481 2.46037C75.7843 1.6524 78.8614 1.49874 82.002 1.49874C85.1426 1.49874 88.2197 1.6524 90.7559 2.46037C90.7884 2.47074 90.8208 2.48138 90.8533 2.49226L90.8884 2.46037L92.2942 1.31376C93.1004 0.656108 94.111 0.296692 95.1537 0.296692H99.7749C101.24 0.296692 102.428 1.47797 102.428 2.93513V4.56617C102.428 5.82812 101.893 7.03169 100.955 7.88162L99.8212 8.90941C99.2676 9.41117 98.6031 9.77634 97.8813 9.97542L97.613 10.0494C98.6639 12.5433 99.2444 15.2091 99.2444 17.3656C99.2444 26.0405 93.848 29.7871 89.0931 33.0882C85.3486 35.6879 82.002 38.0113 82.002 42.248C82.002 38.0113 78.6554 35.6879 74.9109 33.0882C70.156 29.7871 64.7595 26.0405 64.7595 17.3656C64.7595 15.2091 65.3401 12.5433 66.3909 10.0494L66.1227 9.97542C65.4009 9.77634 64.7364 9.41117 64.1828 8.90941L63.0487 7.88162C62.1108 7.03169 61.5764 5.82812 61.5764 4.56617V2.93513ZM85.4505 24.4577C85.4505 24.8722 85.2688 25.2696 84.9454 25.5627C84.6221 25.8557 84.1835 26.0204 83.7262 26.0204C83.3314 26.0204 82.9505 25.8976 82.6457 25.6754C83.1645 27.0567 84.4922 28.3655 86.5115 26.2608C88.2942 24.3051 86.4323 20.1804 84.6183 17.7327C84.0136 16.9169 83.021 16.5242 82.002 16.5242C80.983 16.5242 79.9903 16.9169 79.3857 17.7327C77.5717 20.1804 75.7097 24.3051 77.4924 26.2608C79.5118 28.3655 80.8394 27.0567 81.3582 25.6754C81.0535 25.8976 80.6726 26.0204 80.2778 26.0204C79.8204 26.0204 79.3818 25.8557 79.0585 25.5627C78.7352 25.2696 78.5535 24.8722 78.5535 24.4577H85.4505ZM75.399 12.2477H70.5955L74.3811 15.2626C75.2142 15.926 76.4318 15.7139 76.9472 14.8156C77.5981 13.6815 76.7336 12.2477 75.399 12.2477ZM88.605 12.2477H93.4084L89.6228 15.2626C88.7898 15.926 87.5722 15.7139 87.0567 14.8156C86.4059 13.6815 87.2703 12.2477 88.605 12.2477Z" fill="white"/>
<path d="M108.15 30.0122H112.405V13.8714H108.15V30.0122ZM108.15 11.3544H112.405V7.51581H108.15V11.3544Z" fill="white"/>
<path d="M115.147 35.298H119.403V28.1872H119.465C120.373 29.5716 121.843 30.4841 124.096 30.4841C128.227 30.4841 131.043 27.1804 131.043 21.9575C131.043 16.9233 128.321 13.4309 124.065 13.4309C121.875 13.4309 120.373 14.4692 119.34 15.8851H119.246V13.8714H115.147V35.298ZM123.189 26.9287C120.654 26.9287 119.309 25.0094 119.309 22.0833C119.309 19.1887 120.373 16.8919 123.032 16.8919C125.661 16.8919 126.725 19.0314 126.725 22.0833C126.725 25.1353 125.348 26.9287 123.189 26.9287Z" fill="white"/>
<path d="M139.532 30.4841C143.537 30.4841 146.291 28.5333 146.291 25.2926C146.291 21.517 143.318 20.7619 140.627 20.1955C138.343 19.7236 136.215 19.5977 136.215 18.2133C136.215 17.0492 137.31 16.4199 138.969 16.4199C140.783 16.4199 141.879 17.0492 142.066 18.7797H145.915C145.602 15.539 143.255 13.4309 139.031 13.4309C135.37 13.4309 132.492 15.0985 132.492 18.5909C132.492 22.1148 135.308 22.9014 138.186 23.4677C140.377 23.9082 142.411 24.0655 142.411 25.6073C142.411 26.7399 141.347 27.4636 139.469 27.4636C137.561 27.4636 136.246 26.6455 135.965 24.7892H132.022C132.272 28.2187 134.87 30.4841 139.532 30.4841Z" fill="white"/>
<path d="M162.448 30.0121V13.8714H158.192V23.1846C158.192 25.3241 156.972 26.8343 154.969 26.8343C153.155 26.8343 152.31 25.796 152.31 23.9082V13.8714H148.086V24.6319C148.086 28.1558 150.088 30.4526 153.655 30.4526C155.908 30.4526 157.16 29.6031 158.255 28.1243H158.349V30.0121H162.448Z" fill="white"/>
<path d="M165.2 30.0121H169.456V20.636C169.456 18.4965 170.614 17.1121 172.335 17.1121C173.899 17.1121 174.806 18.056 174.806 19.8809V30.0121H179.062V20.636C179.062 18.4965 180.157 17.1121 181.941 17.1121C183.505 17.1121 184.413 18.056 184.413 19.8809V30.0121H188.668V19.1572C188.668 15.6333 186.759 13.4309 183.38 13.4309C181.346 13.4309 179.656 14.5007 178.561 16.2626H178.499C177.716 14.5636 176.089 13.4309 174.056 13.4309C171.834 13.4309 170.269 14.5636 169.393 16.0424H169.299V13.8714H165.2V30.0121Z" fill="white"/>
<path d="M0.71347 30.0122H4.96895V7.51581H0.71347V30.0122Z" fill="white"/>
<path d="M15.3743 30.4841C20.3494 30.4841 23.7601 26.7714 23.7601 21.9575C23.7601 17.1436 20.3494 13.4309 15.3743 13.4309C10.399 13.4309 6.9884 17.1436 6.9884 21.9575C6.9884 26.7714 10.399 30.4841 15.3743 30.4841ZM15.3743 27.2119C12.7459 27.2119 11.3065 25.1038 11.3065 21.9575C11.3065 18.8112 12.7459 16.6716 15.3743 16.6716C17.9714 16.6716 19.442 18.8112 19.442 21.9575C19.442 25.1038 17.9714 27.2119 15.3743 27.2119Z" fill="white"/>
<path d="M32.8097 35.5182C35.1878 35.5182 37.253 34.9519 38.5985 33.6933C39.7875 32.5921 40.5072 31.0504 40.5072 28.7851V13.8714H36.4081V15.5704H36.3455C35.3755 14.2175 33.9049 13.4309 31.9023 13.4309C27.8346 13.4309 24.9559 16.5143 24.9559 21.3282C24.9559 26.2051 28.4604 29.0368 32.0275 29.0368C34.0614 29.0368 35.2817 28.2187 36.2204 27.149H36.3143V28.9109C36.3143 31.1133 35.1565 32.2775 32.7472 32.2775C30.7759 32.2775 29.8685 31.4909 29.5243 30.4841H25.3001C25.7381 33.6304 28.4291 35.5182 32.8097 35.5182ZM32.7472 25.6072C30.5568 25.6072 29.1175 24.0026 29.1175 21.2653C29.1175 18.5594 30.5568 16.8604 32.7159 16.8604C35.2817 16.8604 36.5333 18.8741 36.5333 21.2338C36.5333 23.6251 35.4381 25.6072 32.7472 25.6072Z" fill="white"/>
<path d="M50.8508 30.4841C55.826 30.4841 59.2366 26.7714 59.2366 21.9575C59.2366 17.1436 55.826 13.4309 50.8508 13.4309C45.8756 13.4309 42.465 17.1436 42.465 21.9575C42.465 26.7714 45.8756 30.4841 50.8508 30.4841ZM50.8508 27.2119C48.2224 27.2119 46.7831 25.1038 46.7831 21.9575C46.7831 18.8112 48.2224 16.6716 50.8508 16.6716C53.4479 16.6716 54.9185 18.8112 54.9185 21.9575C54.9185 25.1038 53.4479 27.2119 50.8508 27.2119Z" fill="white"/>
<path d="M188.476 10.3475C188.476 9.6235 189.059 9.03656 189.78 9.03656H192.387C193.107 9.03656 193.691 9.6235 193.691 10.3475C193.691 11.0715 193.107 11.6585 192.387 11.6585H189.78C189.059 11.6585 188.476 11.0715 188.476 10.3475Z" fill="white"/>
</g>
<defs>
<clipPath id="clip0_139_91">
<rect width="194" height="43" fill="white" transform="translate(0 0.0733643)"/>
</clipPath>
</defs>
</svg>
