<svg width="185" height="40" viewBox="0 0 185 40" fill="none" xmlns="http://www.w3.org/2000/svg">
<g clip-path="url(#clip0_139_103)">
<path fill-rule="evenodd" clip-rule="evenodd" d="M20.3612 4.52619L22.9559 0.0733643L30.3119 4.28244L27.7182 8.73429C27.2627 9.51527 27.9445 10.4649 28.838 10.2943L33.8089 9.34367L35.4177 17.6087L30.4467 18.5584C22.4059 20.095 16.2669 11.554 20.3612 4.52619Z" fill="white"/>
<path fill-rule="evenodd" clip-rule="evenodd" d="M15.8665 34.6205L13.2718 39.0733L5.91472 34.8652L8.50941 30.4124C8.96498 29.6314 8.2831 28.6817 7.38869 28.8524L2.41872 29.802L0.809948 21.5379L5.7809 20.5883C13.8218 19.0517 19.9597 27.5927 15.8665 34.6205Z" fill="white"/>
<path fill-rule="evenodd" clip-rule="evenodd" d="M16.0909 4.52619L13.4972 0.0733643L6.14011 4.28244L8.7348 8.73429C9.18939 9.51527 8.50849 10.4649 7.61407 10.2943L2.64312 9.34367L1.03632 17.6087L6.00629 18.5584C14.0482 20.095 20.1871 11.554 16.0918 4.52619H16.0909Z" fill="white"/>
<path fill-rule="evenodd" clip-rule="evenodd" d="M20.1447 34.6205L22.7375 39.0733L30.0945 34.8652L27.4998 30.4124C27.0452 29.6314 27.7261 28.6817 28.6205 28.8524L33.5905 29.802L35.1993 21.5379L30.2283 20.5883C22.1874 19.0517 16.0495 27.5927 20.1428 34.6205H20.1447Z" fill="white"/>
<path d="M161.307 29.4725V21.185C161.307 20.0365 161.574 19.0059 162.107 18.0943C162.659 17.1641 163.441 16.4348 164.454 15.9054C165.466 15.3769 166.672 15.1127 168.07 15.1127C168.722 15.1064 169.373 15.1891 170.002 15.3584C170.592 15.5047 171.125 15.7143 171.603 15.9873C172.1 16.2427 172.523 16.5528 172.874 16.9174H172.929C173.304 16.5476 173.731 16.2342 174.198 15.9873C174.711 15.7076 175.259 15.4962 175.827 15.3584C176.467 15.1903 177.126 15.1077 177.787 15.1127C179.186 15.1127 180.391 15.376 181.403 15.9054C182.415 16.4348 183.197 17.1631 183.749 18.0943C184.302 19.0059 184.578 20.0355 184.578 21.185V29.4725H180.271V21.3215C180.271 20.8662 180.152 20.4557 179.913 20.0911C179.693 19.7097 179.38 19.3896 179.002 19.1609C178.603 18.9204 178.143 18.797 177.676 18.805C177.179 18.805 176.729 18.924 176.324 19.1609C175.946 19.3893 175.632 19.7094 175.413 20.0911C175.19 20.4629 175.075 20.8889 175.082 21.3215V29.4725H170.803V21.3215C170.803 20.8662 170.683 20.4557 170.444 20.0911C170.22 19.7041 169.896 19.3831 169.505 19.1609C169.107 18.9204 168.647 18.797 168.18 18.805C167.683 18.805 167.232 18.924 166.828 19.1609C166.45 19.3893 166.136 19.7094 165.917 20.0911C165.694 20.4631 165.579 20.8889 165.585 21.3215V29.4725H161.307ZM151.949 29.8011C150.495 29.8011 149.234 29.5281 148.167 28.9801C147.118 28.4146 146.309 27.658 145.738 26.7103C145.167 25.7441 144.882 24.6765 144.882 23.5094V15.4403H149.161V23.4002C149.161 23.8926 149.28 24.3489 149.519 24.7681C149.758 25.1688 150.081 25.4974 150.486 25.7529C150.909 25.9898 151.388 26.1087 151.921 26.1087C152.437 26.1087 152.896 25.9898 153.302 25.7529C153.725 25.4974 154.056 25.1688 154.295 24.7681C154.535 24.3489 154.655 23.8926 154.655 23.4002V15.4403H158.933V23.5094C158.933 24.6765 158.656 25.7441 158.104 26.7103C157.552 27.658 156.752 28.4156 155.703 28.9801C154.672 29.5271 153.421 29.8011 151.949 29.8011ZM131.1 29.4725V26.1087H137.918C138.102 26.1087 138.268 26.0717 138.415 25.9986C138.562 25.9079 138.682 25.7889 138.773 25.6437C138.864 25.5 138.911 25.3342 138.911 25.165C138.911 24.9958 138.864 24.8299 138.773 24.6862C138.688 24.5456 138.563 24.4318 138.415 24.3577C138.266 24.2661 138.094 24.2187 137.918 24.2212H135.434C134.513 24.2212 133.676 24.0749 132.922 23.7834C132.206 23.4895 131.592 22.9952 131.155 22.3609C130.732 21.7047 130.52 20.8564 130.52 19.8171C130.52 19.0147 130.713 18.2854 131.1 17.6292C131.502 16.975 132.061 16.4297 132.728 16.0419C133.424 15.6418 134.215 15.434 135.02 15.4403H141.838V18.8323H135.682C135.437 18.8275 135.2 18.9158 135.02 19.079C134.939 19.1572 134.875 19.2508 134.832 19.3543C134.79 19.4577 134.769 19.5688 134.771 19.6806C134.771 19.936 134.854 20.1544 135.02 20.3368C135.2 20.5 135.437 20.5883 135.682 20.5834H138.111C139.141 20.5834 140.025 20.7385 140.761 21.0475C141.516 21.34 142.095 21.8139 142.501 22.471C142.924 23.1272 143.135 23.9745 143.135 25.0138C143.135 25.8348 142.924 26.5826 142.501 27.2563C142.099 27.9279 141.528 28.4843 140.844 28.8709C140.163 29.2726 139.39 29.4725 138.526 29.4725H131.1ZM121.778 15.1127C122.974 15.1127 124.032 15.3038 124.952 15.687C125.856 16.0284 126.668 16.5711 127.326 17.2733C127.997 17.9613 128.514 18.7815 128.844 19.6806C129.194 20.5922 129.369 21.6043 129.369 22.7167C129.369 24.1022 129.075 25.3336 128.485 26.409C127.941 27.4397 127.119 28.3012 126.112 28.8982C125.099 29.4998 123.922 29.8011 122.579 29.8011C122.008 29.8011 121.465 29.728 120.949 29.5827C120.461 29.4404 119.996 29.2282 119.57 28.9528C119.168 28.6826 118.821 28.3391 118.548 27.9408H118.465V35.4093H114.186V22.7158C114.186 21.1655 114.499 19.8249 115.125 18.6949C115.732 17.5826 116.653 16.6697 117.775 16.0682C118.916 15.4306 120.251 15.1117 121.778 15.1117V15.1127ZM121.778 18.7777C121.115 18.7777 120.536 18.9415 120.039 19.2701C119.56 19.5802 119.192 20.0179 118.934 20.5834C118.677 21.1294 118.548 21.7505 118.548 22.4428C118.548 23.136 118.677 23.7561 118.934 24.3031C119.192 24.85 119.56 25.2878 120.039 25.6164C120.536 25.9264 121.115 26.0814 121.778 26.0814C122.44 26.0814 123.011 25.9255 123.489 25.6164C123.97 25.2855 124.352 24.8316 124.594 24.3031C124.869 23.7561 125.007 23.136 125.007 22.4428C125.007 21.7505 124.869 21.1304 124.594 20.5834C124.336 20.0179 123.968 19.5792 123.489 19.2701C123.011 18.9415 122.44 18.7777 121.778 18.7777ZM107.684 29.4725V15.4403H111.991V29.4725H107.684ZM109.837 13.854C109.156 13.854 108.568 13.6083 108.071 13.1159C107.574 12.6235 107.325 12.0395 107.325 11.3648C107.325 10.6901 107.574 10.1071 108.071 9.61468C108.568 9.10378 109.156 8.84833 109.837 8.84833C110.518 8.84833 111.108 9.10378 111.604 9.61468C112.101 10.1071 112.349 10.6901 112.349 11.3648C112.349 12.0395 112.101 12.6226 111.604 13.1159C111.108 13.6083 110.518 13.854 109.837 13.854ZM98.325 29.8011C96.8717 29.8011 95.565 29.4823 94.4049 28.8436C93.2669 28.2255 92.3146 27.3195 91.6449 26.218C90.9827 25.1055 90.6511 23.8565 90.6511 22.4701C90.6511 21.0661 90.9827 19.8171 91.6449 18.7231C92.3146 17.6216 93.2669 16.7156 94.4049 16.0975C95.565 15.4403 96.8717 15.1127 98.325 15.1127C99.7793 15.1127 101.076 15.4403 102.218 16.0975C103.352 16.7113 104.296 17.6188 104.95 18.7231C105.631 19.8171 105.971 21.0661 105.971 22.4701C105.971 23.8565 105.631 25.1055 104.95 26.218C104.296 27.3222 103.352 28.2298 102.218 28.8436C101.058 29.4823 99.7606 29.8011 98.325 29.8011ZM98.325 26.1087C99.0059 26.1087 99.5953 25.944 100.092 25.6164C100.589 25.2882 100.989 24.8349 101.251 24.3031C101.528 23.7561 101.666 23.136 101.666 22.4428C101.666 21.7681 101.528 21.1577 101.251 20.6098C100.989 20.0782 100.589 19.6253 100.092 19.2974C99.5953 18.9688 99.0059 18.805 98.325 18.805C97.6441 18.805 97.0458 18.9688 96.5312 19.2974C96.034 19.6256 95.6336 20.0789 95.3712 20.6107C95.09 21.1811 94.9484 21.809 94.9579 22.4437C94.9579 23.136 95.0956 23.7561 95.3712 24.3031C95.6337 24.8349 96.034 25.2881 96.5312 25.6164C97.0458 25.944 97.6441 26.1087 98.325 26.1087ZM76.7458 35.0261V31.3874H83.8116C84.0881 31.3874 84.3184 31.2967 84.5024 31.1144C84.5921 31.0358 84.6632 30.9387 84.7109 30.8299C84.7585 30.721 84.7813 30.6031 84.7779 30.4846V27.3938H84.6952C84.3457 27.7966 83.9471 28.1549 83.5086 28.4605C83.1032 28.753 82.6427 28.9713 82.1281 29.1176C81.5804 29.2701 81.0134 29.3436 80.4445 29.336C79.1929 29.336 78.0702 29.0435 77.0764 28.4605C76.1013 27.8589 75.3279 27.0292 74.7573 25.9713C74.2062 24.9144 73.9297 23.7103 73.9297 22.3609C73.9297 21.03 74.2151 19.8171 74.7858 18.7231C75.3742 17.6292 76.2302 16.7536 77.3529 16.0975C78.4746 15.4403 79.8463 15.1127 81.4659 15.1127C83.0117 15.1127 84.3459 15.4315 85.4686 16.0702C86.596 16.6765 87.5178 17.599 88.1184 18.7222C88.7442 19.8532 89.0571 21.185 89.0571 22.7167V30.9223C89.0571 32.1801 88.6802 33.1746 87.9256 33.9039C87.1896 34.6517 86.1682 35.0251 84.8615 35.0251L76.7458 35.0261ZM81.4934 25.7802C82.1556 25.7802 82.7263 25.6339 83.2055 25.3424C83.6783 25.0382 84.0594 24.6131 84.3085 24.112C84.5702 23.5844 84.7027 23.0032 84.6952 22.4155C84.6952 21.7593 84.5673 21.1577 84.3095 20.6107C84.0517 20.0638 83.6837 19.6348 83.2045 19.3247C82.7263 18.9961 82.1556 18.8323 81.4924 18.8323C80.8489 18.8323 80.2782 18.9874 79.7813 19.2974C79.3031 19.6075 78.9351 20.0267 78.6773 20.5552C78.4205 21.0846 78.2916 21.6764 78.2916 22.3336C78.2916 22.9722 78.4195 23.5552 78.6773 24.0847C78.9351 24.5946 79.3031 25.0051 79.7823 25.3151C80.2782 25.6252 80.8489 25.7802 81.4934 25.7802ZM65.2325 29.8011C63.7792 29.8011 62.4725 29.4823 61.3134 28.8436C60.175 28.2257 59.2223 27.3197 58.5525 26.218C57.8903 25.1055 57.5587 23.8565 57.5587 22.4701C57.5587 21.0661 57.8903 19.8171 58.5525 18.7231C59.2223 17.6214 60.175 16.7154 61.3134 16.0975C62.4725 15.4403 63.7792 15.1127 65.2325 15.1127C66.6868 15.1127 67.9837 15.4403 69.1251 16.0975C70.259 16.7114 71.2034 17.6189 71.8575 18.7231C72.5384 19.8171 72.8789 21.0661 72.8789 22.4701C72.8789 23.8565 72.5384 25.1055 71.8575 26.218C71.2034 27.3222 70.259 28.2297 69.1251 28.8436C67.966 29.4823 66.6681 29.8011 65.2325 29.8011ZM65.2325 26.1087C65.9134 26.1087 66.5019 25.944 66.9997 25.6164C67.4966 25.2879 67.8965 24.8347 68.1588 24.3031C68.4343 23.7561 68.5721 23.136 68.5721 22.4428C68.5721 21.7681 68.4343 21.1577 68.1588 20.6098C67.8964 20.0784 67.4965 19.6255 66.9997 19.2974C66.5028 18.9688 65.9134 18.805 65.2325 18.805C64.5516 18.805 63.9534 18.9688 63.4388 19.2974C62.9415 19.6256 62.5412 20.0789 62.2787 20.6107C61.9976 21.1811 61.856 21.809 61.8654 22.4437C61.8654 23.136 62.0032 23.7561 62.2787 24.3031C62.5413 24.8349 62.9416 25.2881 63.4388 25.6164C63.9534 25.944 64.5516 26.1087 65.2325 26.1087ZM51.53 29.4725C50.3335 29.4725 49.2846 29.2093 48.3833 28.6798C47.5067 28.1762 46.7823 27.4489 46.2855 26.5738C45.7886 25.6983 45.5396 24.7311 45.5396 23.6742V10.3255H50.177V24.0018C50.177 24.4405 50.3345 24.8227 50.6464 25.1513C50.9593 25.4789 51.345 25.6437 51.8055 25.6437H56.9122V29.4725H51.53Z" fill="white"/>
</g>
<defs>
<clipPath id="clip0_139_103">
<rect width="184" height="39" fill="white" transform="translate(0.809998 0.0733643)"/>
</clipPath>
</defs>
</svg>
