<svg width="161" height="32" viewBox="0 0 161 32" fill="none" xmlns="http://www.w3.org/2000/svg">
<g clip-path="url(#clip0_139_78)">
<path fill-rule="evenodd" clip-rule="evenodd" d="M20.4321 9.12947C19.1296 8.2779 17.5982 7.82336 16.0316 7.82336V0.0733643C19.1647 0.0733643 22.2275 0.982424 24.8327 2.68559C27.4378 4.38874 29.4683 6.80952 30.6673 9.64175C31.8663 12.474 32.18 15.5906 31.5688 18.5973C30.9575 21.6039 29.4488 24.3658 27.2333 26.5335C25.0178 28.7012 22.1951 30.1775 19.1221 30.7755C16.0492 31.3736 12.8639 31.0666 9.96925 29.8935C7.0746 28.7203 4.60048 26.7337 2.85979 24.1847C1.1191 21.6357 0.190002 18.639 0.190002 15.5734H8.11079C8.11079 17.1062 8.57535 18.6045 9.44569 19.879C10.316 21.1535 11.5531 22.1468 13.0005 22.7334C14.4477 23.32 16.0404 23.4735 17.5769 23.1744C19.1133 22.8754 20.5247 22.1373 21.6325 21.0535C22.7402 19.9696 23.4946 18.5887 23.8001 17.0853C24.1058 15.582 23.949 14.0237 23.3494 12.6076C22.7499 11.1914 21.7347 9.98104 20.4321 9.12947Z" fill="white"/>
<path fill-rule="evenodd" clip-rule="evenodd" d="M8.11079 0.0733684C8.11079 1.09111 7.90592 2.09889 7.50786 3.03917C7.1098 3.97944 6.52636 4.83379 5.79085 5.55345C5.05534 6.2731 4.18216 6.84396 3.22116 7.23344C2.26016 7.62291 1.23017 7.82337 0.190003 7.82337L0.190002 15.5734C2.27035 15.5734 4.33032 15.1725 6.25232 14.3935C8.17431 13.6146 9.92069 12.4728 11.3917 11.0335C12.8627 9.59424 14.0296 7.88552 14.8257 6.00496C15.6218 4.12441 16.0316 2.10885 16.0316 0.0733643L8.11079 0.0733684Z" fill="white"/>
<path d="M99.6902 11.274H95.847V23.2186H99.6902V11.274Z" fill="white"/>
<path d="M96.2748 9.03747C96.6764 9.4307 97.1785 9.62732 97.7813 9.62732C98.3841 9.62732 98.8783 9.4307 99.2633 9.03747C99.649 8.62788 99.8415 8.1363 99.8415 7.56284C99.8415 6.973 99.649 6.48143 99.2633 6.08821C98.8783 5.69496 98.3841 5.49835 97.7813 5.49835C97.1785 5.49835 96.6764 5.69496 96.2748 6.08821C95.889 6.48143 95.6966 6.973 95.6966 7.56284C95.6966 8.1363 95.889 8.62788 96.2748 9.03747Z" fill="white"/>
<path d="M40.7098 23.2186V5.867H44.6535V19.8269H52.5158V23.2186H40.7098Z" fill="white"/>
<path fill-rule="evenodd" clip-rule="evenodd" d="M59.6176 23.4889C58.3617 23.4889 57.223 23.2185 56.2015 22.6778C55.1967 22.1207 54.4013 21.3671 53.8152 20.4167C53.2291 19.4664 52.9361 18.4014 52.9361 17.2217C52.9361 16.042 53.2291 14.9852 53.8152 14.0512C54.4013 13.1173 55.1967 12.3799 56.2015 11.8393C57.2062 11.2821 58.345 11.0036 59.6176 11.0036C60.8904 11.0036 62.0291 11.274 63.0338 11.8146C64.0386 12.3554 64.834 13.1009 65.4201 14.0512C66.0062 14.9852 66.2993 16.042 66.2993 17.2217C66.2993 18.4014 66.0062 19.4664 65.4201 20.4167C64.834 21.3671 64.0386 22.1207 63.0338 22.6778C62.0291 23.2185 60.8904 23.4889 59.6176 23.4889ZM59.6176 20.0726C60.1703 20.0726 60.6559 19.958 61.0746 19.7286C61.4932 19.4828 61.8114 19.1469 62.0291 18.7209C62.2635 18.2785 62.3807 17.7787 62.3807 17.2217C62.3807 16.6646 62.2635 16.1812 62.0291 15.7716C61.7946 15.3456 61.4681 15.0179 61.0494 14.7885C60.6475 14.5427 60.1703 14.4199 59.6176 14.4199C59.0818 14.4199 58.6046 14.5427 58.1859 14.7885C57.7673 15.0179 57.4407 15.3456 57.2062 15.7716C56.9718 16.1977 56.8546 16.6892 56.8546 17.2462C56.8546 17.7869 56.9718 18.2785 57.2062 18.7209C57.4407 19.1469 57.7673 19.4828 58.1859 19.7286C58.6046 19.958 59.0818 20.0726 59.6176 20.0726Z" fill="white"/>
<path fill-rule="evenodd" clip-rule="evenodd" d="M69.343 27.8882C70.3645 28.347 71.5451 28.5764 72.8848 28.5764C74.191 28.5764 75.3548 28.3224 76.3763 27.8145C77.3979 27.3065 78.2016 26.6021 78.7877 25.7009C79.3738 24.7997 79.6672 23.7347 79.6672 22.5058V11.274H75.899V12.0765C75.6188 11.8457 75.3005 11.652 74.9445 11.4952C74.2914 11.1839 73.5462 11.0282 72.709 11.0282C71.587 11.0282 70.5906 11.2904 69.7198 11.8147C68.8489 12.3226 68.1624 13.0272 67.66 13.9283C67.1576 14.8131 66.9065 15.8126 66.9065 16.9268C66.9065 18.0246 67.1576 19.024 67.66 19.9252C68.1624 20.8264 68.8489 21.5391 69.7198 22.0634C70.5906 22.5877 71.587 22.8499 72.709 22.8499C73.5295 22.8499 74.2747 22.6943 74.9445 22.383C75.269 22.2321 75.5621 22.0544 75.8237 21.8498V22.6041C75.8237 23.4397 75.5474 24.0869 74.9948 24.5457C74.4589 25.0045 73.7137 25.2339 72.7592 25.2339C71.9889 25.2339 71.3274 25.1028 70.7748 24.8406C70.239 24.5785 69.7533 24.1934 69.3179 23.6855L66.9567 25.9958C67.5428 26.815 68.3383 27.4459 69.343 27.8882ZM74.8189 19.1633C74.4337 19.3927 73.9733 19.5074 73.4374 19.5074C72.9015 19.5074 72.4326 19.3927 72.0307 19.1633C71.6455 18.9339 71.3441 18.6226 71.1265 18.2293C70.9087 17.8198 70.7999 17.3855 70.7999 16.9268C70.7999 16.4352 70.9087 15.9928 71.1265 15.5996C71.3441 15.2064 71.6539 14.8951 72.0558 14.6657C72.4577 14.4363 72.9183 14.3216 73.4374 14.3216C73.9733 14.3216 74.4337 14.4363 74.8189 14.6657C75.2208 14.8951 75.5222 15.2064 75.7232 15.5996C75.9409 15.9928 76.0497 16.4352 76.0497 16.9268C76.0497 17.4183 75.9409 17.8607 75.7232 18.2539C75.5222 18.6308 75.2208 18.9339 74.8189 19.1633Z" fill="white"/>
<path fill-rule="evenodd" clip-rule="evenodd" d="M87.7552 23.4889C86.4989 23.4889 85.3599 23.2185 84.3389 22.6778C83.3338 22.1207 82.5385 21.3671 81.9524 20.4167C81.3663 19.4664 81.0732 18.4014 81.0732 17.2217C81.0732 16.042 81.3663 14.9852 81.9524 14.0512C82.5385 13.1173 83.3338 12.3799 84.3389 11.8393C85.3433 11.2821 86.4823 11.0036 87.7552 11.0036C89.0272 11.0036 90.1663 11.274 91.1706 11.8146C92.1758 12.3554 92.971 13.1009 93.5571 14.0512C94.1433 14.9852 94.4364 16.042 94.4364 17.2217C94.4364 18.4014 94.1433 19.4664 93.5571 20.4167C92.971 21.3671 92.1758 22.1207 91.1706 22.6778C90.1663 23.2185 89.0272 23.4889 87.7552 23.4889ZM87.7552 20.0726C88.3072 20.0726 88.7928 19.958 89.2118 19.7286C89.63 19.4828 89.9484 19.1469 90.1663 18.7209C90.4007 18.2785 90.5179 17.7787 90.5179 17.2217C90.5179 16.6646 90.4007 16.1812 90.1663 15.7716C89.9318 15.3456 89.6055 15.0179 89.1865 14.7885C88.7849 14.5427 88.3072 14.4199 87.7552 14.4199C87.2189 14.4199 86.7413 14.5427 86.3231 14.7885C85.9041 15.0179 85.5777 15.3456 85.3433 15.7716C85.1088 16.1977 84.9916 16.6892 84.9916 17.2462C84.9916 17.7869 85.1088 18.2785 85.3433 18.7209C85.5777 19.1469 85.9041 19.4828 86.3231 19.7286C86.7413 19.958 87.2189 20.0726 87.7552 20.0726Z" fill="white"/>
<path fill-rule="evenodd" clip-rule="evenodd" d="M108.927 23.4643C108.108 23.4643 107.354 23.3087 106.667 22.9974C106.306 22.8335 105.979 22.6379 105.688 22.4105V28.2569H101.895V11.274H105.738V12.0984C106.017 11.8753 106.326 11.6824 106.667 11.5198C107.354 11.192 108.108 11.0282 108.927 11.0282C110.083 11.0282 111.105 11.2986 111.992 11.8393C112.897 12.38 113.6 13.1173 114.102 14.0512C114.622 14.9852 114.881 16.0502 114.881 17.2463C114.881 18.4424 114.622 19.5074 114.102 20.4413C113.6 21.3753 112.897 22.1126 111.992 22.6533C111.105 23.194 110.083 23.4643 108.927 23.4643ZM108.225 20.0727C108.777 20.0727 109.255 19.9498 109.656 19.704C110.075 19.4583 110.402 19.1223 110.636 18.6964C110.87 18.2703 110.988 17.787 110.988 17.2463C110.988 16.6892 110.87 16.1977 110.636 15.7717C110.402 15.3456 110.075 15.018 109.656 14.7886C109.255 14.5427 108.786 14.4199 108.249 14.4199C107.714 14.4199 107.236 14.5427 106.818 14.7886C106.416 15.018 106.098 15.3456 105.864 15.7717C105.629 16.1977 105.512 16.6892 105.512 17.2463C105.512 17.787 105.621 18.2703 105.838 18.6964C106.073 19.1223 106.399 19.4583 106.818 19.704C107.236 19.9498 107.705 20.0727 108.225 20.0727Z" fill="white"/>
<path d="M118.642 23.2431C119.346 23.4234 120.057 23.5135 120.777 23.5135C122.301 23.5135 123.506 23.1694 124.394 22.4812C125.298 21.7931 125.75 20.8674 125.75 19.704C125.75 18.9503 125.609 18.344 125.323 17.8853C125.039 17.4102 124.671 17.0333 124.219 16.7548C123.766 16.4762 123.289 16.255 122.786 16.0911C122.284 15.9273 121.807 15.788 121.355 15.6733C120.903 15.5586 120.535 15.4276 120.249 15.2801C119.965 15.1326 119.822 14.936 119.822 14.6902C119.822 14.4608 119.932 14.2888 120.149 14.1741C120.367 14.043 120.693 13.9775 121.129 13.9775C121.581 13.9775 122.041 14.0676 122.51 14.2479C122.996 14.428 123.431 14.7394 123.816 15.1818L126.002 13.019C125.449 12.3308 124.729 11.8147 123.842 11.4706C122.971 11.1102 122.017 10.9299 120.978 10.9299C119.99 10.9299 119.128 11.0938 118.391 11.4214C117.654 11.7492 117.084 12.1998 116.683 12.7732C116.281 13.3303 116.08 13.9939 116.08 14.764C116.08 15.4849 116.222 16.083 116.507 16.5581C116.791 17.0169 117.16 17.3774 117.612 17.6395C118.064 17.9017 118.542 18.1065 119.044 18.2539C119.546 18.4014 120.024 18.5407 120.476 18.6718C120.927 18.7865 121.297 18.9258 121.581 19.0896C121.883 19.2371 122.033 19.4583 122.033 19.7532C122.033 19.9826 121.907 20.1627 121.656 20.2939C121.422 20.4249 121.079 20.4905 120.626 20.4905C119.973 20.4905 119.37 20.3758 118.818 20.1464C118.265 19.9006 117.788 19.5647 117.386 19.1387L115.201 21.3015C115.62 21.7439 116.122 22.1372 116.708 22.4812C117.311 22.8089 117.956 23.0629 118.642 23.2431Z" fill="white"/>
<path d="M132.759 23.4889C131.637 23.4889 130.641 23.2677 129.77 22.8253C128.916 22.3665 128.246 21.7439 127.761 20.9574C127.274 20.1546 127.032 19.2371 127.032 18.2048V11.274H130.875V18.1557C130.875 18.5652 130.942 18.9176 131.076 19.2124C131.227 19.5074 131.445 19.7368 131.729 19.9006C132.014 20.0645 132.357 20.1464 132.759 20.1464C133.328 20.1464 133.781 19.9744 134.116 19.6303C134.451 19.2698 134.618 18.7783 134.618 18.1557V11.274H138.461V18.1802C138.461 19.2289 138.219 20.1546 137.732 20.9574C137.247 21.7439 136.577 22.3665 135.723 22.8253C134.869 23.2677 133.881 23.4889 132.759 23.4889Z" fill="white"/>
<path d="M144.215 11.274H140.371V23.2186H144.215V16.2386C144.215 15.829 144.299 15.4849 144.466 15.2064C144.65 14.9278 144.893 14.7148 145.194 14.5674C145.496 14.4035 145.839 14.3216 146.224 14.3216C146.777 14.3216 147.237 14.4936 147.605 14.8377C147.991 15.1654 148.184 15.6324 148.184 16.2386V23.2186H152.027V16.2386C152.027 15.829 152.111 15.4849 152.278 15.2064C152.462 14.9278 152.705 14.7148 153.007 14.5674C153.308 14.4035 153.651 14.3216 154.036 14.3216C154.589 14.3216 155.049 14.4936 155.418 14.8377C155.803 15.1654 155.995 15.6324 155.995 16.2386V23.2186H159.839V15.8208C159.839 14.8214 159.621 13.9693 159.186 13.2648C158.767 12.5438 158.189 11.9949 157.453 11.6181C156.733 11.2248 155.903 11.0282 154.965 11.0282C154.011 11.0282 153.148 11.233 152.379 11.6427C151.878 11.9036 151.441 12.2405 151.066 12.6531C150.717 12.2215 150.292 11.8683 149.791 11.5935C149.121 11.2167 148.36 11.0282 147.506 11.0282C146.601 11.0282 145.789 11.2167 145.069 11.5935C144.756 11.7503 144.471 11.938 144.215 12.1568V11.274Z" fill="white"/>
</g>
<defs>
<clipPath id="clip0_139_78">
<rect width="160" height="31" fill="white" transform="translate(0.190002 0.0733643)"/>
</clipPath>
</defs>
</svg>
